<?xml version="1.0" encoding="iso-8859-1"?>
<!-- Generator: Adobe Illustrator 19.0.0, SVG Export Plug-In . SVG Version: 6.00 Build 0)  -->
<svg version="1.1" id="Capa_1" xmlns="http://www.w3.org/2000/svg" xmlns:xlink="http://www.w3.org/1999/xlink" x="0px" y="0px"
	 viewBox="0 0 511.998 511.998" style="enable-background:new 0 0 511.998 511.998;" xml:space="preserve">
<g>
	<g>
		<path d="M354.571,191.159h-0.139c-5.511,0-9.978,4.468-9.978,9.978c0,5.51,4.467,9.978,9.978,9.978h0.139
			c5.511,0,9.978-4.468,9.978-9.978C364.548,195.627,360.081,191.159,354.571,191.159z"/>
	</g>
</g>
<g>
	<g>
		<path d="M143.414,237.698c-1.195-5.379-6.522-8.771-11.904-7.576l-0.14,0.03c-5.382,1.185-8.783,6.508-7.599,11.89
			c1.026,4.659,5.153,7.834,9.735,7.834c0.71,0,1.432-0.076,2.155-0.234l0.178-0.04C141.218,248.407,144.61,243.077,143.414,237.698
			z"/>
	</g>
</g>
<g>
	<g>
		<path d="M422.682,312.948c4.517-17.669,1.517-35.963-8.449-51.337c20.659-14.087,33.075-36.975,33.075-62.14
			c0-28.535-15.959-54.012-41.337-67.088c3.281-17.418-0.59-35.326-11.097-50.274c-10.855-15.442-27.14-25.484-45.64-28.425
			c-1.04-12.619-6.224-24.48-15.063-34.141C322.808,7.123,306.497,0,289.42,0c-20.868,0-39.274,10.452-50.029,26.265
			C228.636,10.452,210.231,0,189.363,0c-17.078,0-33.388,7.123-44.75,19.542c-8.838,9.661-14.023,21.522-15.063,34.141
			c-18.499,2.941-34.785,12.985-45.64,28.426C73.4,97.057,69.53,114.966,72.811,132.383c-25.379,13.077-41.337,38.554-41.337,67.088
			c0,25.162,12.413,48.047,33.067,62.134c-13.723,21.107-14.224,47.492-0.567,70.087c14.249,23.575,39.23,35.757,65.882,32.995
			c1.53,11.584,6.583,22.608,14.617,31.45c11.371,12.516,27.733,19.694,44.888,19.694c20.868,0,39.274-10.452,50.029-26.265
			c10.755,15.813,29.16,26.265,50.029,26.265c16.014,0,31.332-6.258,42.549-17.27c3.418,19.818,14.651,36.985,30.409,48.213v28.273
			c0,20.375,19.43,36.951,43.315,36.951s43.315-16.576,43.315-36.951v-28.273c19.054-13.577,31.517-35.835,31.517-60.962
			C480.524,350.394,455.782,320.666,422.682,312.948z M229.414,208.38c-27.343-2.401-34.242-15.036-42.092-29.445
			c-7.624-13.994-17.113-31.408-45.524-34.414c-5.478-0.583-10.392,3.392-10.972,8.873c-0.58,5.48,3.393,10.392,8.873,10.971
			c17.998,1.904,22.812,10.741,30.099,24.117c2.683,4.925,5.552,10.178,9.279,15.211c-5.874,6.17-14.973,12.601-25.331,17.735
			c-4.937,2.448-6.955,8.434-4.508,13.371c1.742,3.513,5.275,5.549,8.947,5.549c1.489,0,3-0.334,4.424-1.04
			c12.559-6.227,23.296-13.867,30.853-21.796c8.446,5.574,19.837,9.676,35.951,10.87v128.912c0,21.274-17.966,38.583-40.05,38.583
			c-11.543,0-22.521-4.796-30.118-13.158c-5.856-6.445-9.236-14.34-9.831-22.704c20.008-7.688,25.104-21.073,28.922-31.121
			c3.352-8.824,5.035-13.253,14.742-15.854c5.323-1.426,8.482-6.896,7.055-12.22c-1.426-5.323-6.898-8.485-12.22-7.055
			c-19.57,5.243-24.577,18.421-28.233,28.041c-3.734,9.827-6.431,16.926-22.709,21.288c-0.014,0.004-0.027,0.009-0.041,0.013
			c-0.008,0.003-0.017,0.003-0.026,0.005c-27.026,7.441-46.978-7.059-55.854-21.743c-8.835-14.618-11.981-36.967,5.689-55.85
			c2.173-2.323,3.109-5.543,2.519-8.667c-0.59-3.126-2.634-5.783-5.505-7.154c-19.94-9.525-32.326-28.77-32.326-50.229
			c0-23.148,14.405-43.6,36.698-52.107c4.995-1.906,7.601-7.41,5.907-12.482c-4.672-13.994-2.413-29.046,6.199-41.298
			c9.027-12.842,23.395-20.427,39.43-20.826c19.328,0.039,23.8,8.126,29.454,18.358c5.074,9.183,12.023,21.76,30.557,21.76
			c5.511,0,9.978-4.468,9.978-9.978s-4.467-9.978-9.978-9.978c-6.138,0-7.961-2.171-13.092-11.454
			c-5.565-10.072-13.652-24.682-36.928-27.979c1.017-7.544,4.32-14.618,9.678-20.475c7.595-8.296,18.539-13.056,30.031-13.056
			c22.084,0,40.051,17.309,40.051,38.583V208.38z M341.873,343.112c-0.01-0.003-0.02-0.004-0.03-0.006
			c-0.012-0.003-0.023-0.008-0.035-0.011c-16.277-4.362-18.975-11.461-22.709-21.288c-3.656-9.621-8.663-22.799-28.232-28.041
			c-5.322-1.427-10.794,1.732-12.22,7.055c-1.427,5.323,1.732,10.794,7.055,12.22c9.707,2.6,11.389,7.03,14.742,15.854
			c3.818,10.048,8.914,23.433,28.922,31.121c-0.594,8.364-3.975,16.259-9.831,22.704c-7.596,8.361-18.573,13.157-30.116,13.157
			c-22.084,0-40.051-17.309-40.051-38.583v-78.657c0-20.393,10.816-30.557,20.937-33.27c12.565-3.368,25.688,3.126,33.433,16.54
			c2.755,4.77,8.856,6.407,13.629,3.652c4.772-2.756,6.408-8.857,3.652-13.629c-12.396-21.47-34.332-31.616-55.88-25.838
			c-5.861,1.57-11.156,4.229-15.773,7.776v-74.046c24.417,1.805,31.569,10.522,40.344,21.25c7.411,9.06,15.811,19.329,33.83,25.059
			c1.006,0.32,2.024,0.473,3.026,0.473c4.229,0,8.156-2.711,9.506-6.956c1.67-5.252-1.233-10.863-6.484-12.533
			c-12.372-3.935-17.961-10.768-24.432-18.678c-10.158-12.419-21.575-26.346-55.791-28.597V58.539
			c0-21.274,17.967-38.583,40.051-38.583c11.491,0,22.436,4.759,30.028,13.057c5.358,5.857,8.662,12.931,9.678,20.475
			c-23.276,3.298-31.363,17.907-36.928,27.979c-5.13,9.284-6.953,11.454-13.092,11.454c-5.511,0-9.978,4.468-9.978,9.978
			c0,5.51,4.467,9.978,9.978,9.978c18.534,0,25.483-12.576,30.557-21.76c5.654-10.232,10.126-18.319,29.454-18.358
			c16.035,0.399,30.403,7.984,39.43,20.826c8.613,12.251,10.872,27.304,6.2,41.298c-1.693,5.072,0.912,10.576,5.907,12.482
			c22.293,8.506,36.698,28.958,36.698,52.107c0,21.459-12.386,40.705-32.326,50.229c-2.871,1.371-4.915,4.028-5.505,7.154
			c-0.59,3.125,0.346,6.344,2.519,8.667c12.014,12.838,15.709,29.496,10.412,45.541c-24.289,1.041-45.612,13.708-58.533,32.572
			C343.232,343.471,342.551,343.298,341.873,343.112z M405.691,492.045c-12.662,0-23.359-7.784-23.359-16.996V456.89
			c7.312,2.409,15.111,3.735,23.215,3.75c0.047,0.001,0.094,0.007,0.141,0.007c0.001,0,0.002,0,0.003,0s0.002,0,0.003,0
			c0.047,0,0.094-0.006,0.141-0.007c8.105-0.015,15.903-1.341,23.215-3.75v18.159h0.001
			C429.05,484.261,418.352,492.045,405.691,492.045z M421.292,438.416l17.609-44.344c2.034-5.122-0.469-10.922-5.59-12.955
			c-5.122-2.035-10.921,0.47-12.956,5.591l-14.663,36.924l-14.663-36.924c-2.034-5.122-7.834-7.626-12.956-5.591
			c-5.122,2.033-7.625,7.834-5.59,12.955l17.609,44.344c-22.682-6.739-39.277-27.765-39.277-52.605
			c0-30.259,24.618-54.877,54.877-54.877c0.954,0,1.939,0.027,2.925,0.08c28.904,1.527,51.951,25.52,51.951,54.797
			C460.568,410.652,443.974,431.677,421.292,438.416z"/>
	</g>
</g>
<g>
</g>
<g>
</g>
<g>
</g>
<g>
</g>
<g>
</g>
<g>
</g>
<g>
</g>
<g>
</g>
<g>
</g>
<g>
</g>
<g>
</g>
<g>
</g>
<g>
</g>
<g>
</g>
<g>
</g>
</svg>
